name Run_300 02_newCOP3_v24.mot
datacolumns 19
datarows 102
range 2.725 2.830208
DataType=double
version=3
OpenSimVersion=4.3-2021-08-27-4bc7ad9
endheader
time	R_ground_force_vx	R_ground_force_vy	R_ground_force_vz	R_ground_force_px	R_ground_force_py	R_ground_force_pz	L_ground_force_vx	L_ground_force_vy	L_ground_force_vz	L_ground_force_px	L_ground_force_py	L_ground_force_pz	R_ground_torque_x	R_ground_torque_y	R_ground_torque_z	L_ground_torque_x	L_ground_torque_y	L_ground_torque_z
2.725	-170.132294	1335.095703	12.103686	1.010766	0	-0.327786	0	0	0	0	0	0	-0	0.067955	-0	0	0	0
2.726042	-167.151596	1348.134155	11.702936	1.008368	0	-0.327706	0	0	0	0	0	0	-0	0.204884	-0	0	0	0
2.727083	-164.052353	1360.693359	11.12306	1.005975	0	-0.327657	0	0	0	0	0	0	-0	0.338975	-0	0	0	0
2.728125	-160.861633	1372.759888	10.366923	1.00359	0	-0.327637	0	0	0	0	0	0	-0	0.470225	-0	0	0	0
2.729167	-157.608597	1384.32605	9.441405	1.001216	0	-0.327644	0	0	0	0	0	0	-0	0.598635	-0	0	0	0
2.730208	-154.3237	1395.388794	8.357135	0.998856	0	-0.327672	0	0	0	0	0	0	-0	0.724213	-0	0	0	0
2.73125	-151.037827	1405.950073	7.12815	0.996513	0	-0.327718	0	0	0	0	0	0	-0	0.846971	-0	0	0	0
2.732292	-147.781326	1416.015503	5.771479	0.994189	0	-0.327778	0	0	0	0	0	0	-0	0.966928	-0	0	0	0
2.733333	-144.583038	1425.594971	4.30666	0.991886	0	-0.327847	0	0	0	0	0	0	-0	1.084103	-0	0	0	0
2.734375	-141.469376	1434.701294	2.755216	0.989605	0	-0.327921	0	0	0	0	0	0	-0	1.198523	-0	0	0	0
2.735417	-138.463547	1443.350464	1.140088	0.987348	0	-0.327995	0	0	0	0	0	0	-0	1.310219	-0	0	0	0
2.736458	-135.5849	1451.561035	-0.514954	0.985116	0	-0.328066	0	0	0	0	0	0	-0	1.419227	-0	0	0	0
2.7375	-132.848404	1459.353394	-2.1859	0.9829059999999999	0	-0.328127	0	0	0	0	0	0	-0	1.525588	-0	0	0	0
2.738542	-130.264374	1466.75	-3.849096	0.980719	0	-0.328176	0	0	0	0	0	0	-0	1.629353	-0	0	0	0
2.739583	-127.838417	1473.774292	-5.481802	0.978553	0	-0.328209	0	0	0	0	0	0	-0	1.730576	-0	0	0	0
2.740625	-125.571457	1480.450562	-7.06273	0.976405	0	-0.328221	0	0	0	0	0	0	-0	1.829324	-0	0	0	0
2.741667	-123.460075	1486.803467	-8.57253	0.9742729999999999	0	-0.328211	0	0	0	0	0	0	-0	1.92567	-0	0	0	0
2.742708	-121.496925	1492.856934	-9.994211	0.972153	0	-0.328176	0	0	0	0	0	0	-0	2.019696	-0	0	0	0
2.74375	-119.67128	1498.634644	-11.313508	0.970043	0	-0.328115	0	0	0	0	0	0	-0	2.111498	-0	0	0	0
2.744792	-117.969673	1504.158203	-12.519162	0.967938	0	-0.328025	0	0	0	0	0	0	-0	2.201177	-0	0	0	0
2.745833	-116.376541	1509.447876	-13.603125	0.965836	0	-0.327907	0	0	0	0	0	0	-0	2.288847	-0	0	0	0
2.746875	-114.874878	1514.521362	-14.560676	0.963732	0	-0.32776	0	0	0	0	0	0	-0	2.374631	-0	0	0	0
2.747917	-113.446884	1519.393555	-15.390455	0.961625	0	-0.327587	0	0	0	0	0	0	-0	2.458662	-0	0	0	0
2.748958	-112.074463	1524.076538	-16.094412	0.959511	0	-0.327388	0	0	0	0	0	0	-0	2.541078	-0	0	0	0
2.75	-110.739708	1528.579102	-16.67766	0.957389	0	-0.327166	0	0	0	0	0	0	-0	2.622029	-0	0	0	0
2.751042	-109.425217	1532.906982	-17.148273	0.955256	0	-0.326923	0	0	0	0	0	0	-0	2.701665	-0	0	0	0
2.752083	-108.11438	1537.062622	-17.516996	0.953113	0	-0.326664	0	0	0	0	0	0	-0	2.780146	-0	0	0	0
2.753125	-106.791473	1541.045532	-17.796886	0.950958	0	-0.32639	0	0	0	0	0	0	-0	2.857629	-0	0	0	0
2.754167	-105.441765	1544.852295	-18.002928	0.9487910000000001	0	-0.326108	0	0	0	0	0	0	-0	2.934274	-0	0	0	0
2.755208	-104.051521	1548.477417	-18.151575	0.946612	0	-0.32582	0	0	0	0	0	0	-0	3.010237	-0	0	0	0
2.75625	-102.607979	1551.913208	-18.260286	0.944422	0	-0.32553	0	0	0	0	0	0	-0	3.08567	-0	0	0	0
2.757292	-101.09935	1555.150635	-18.347036	0.942221	0	-0.325244	0	0	0	0	0	0	-0	3.16072	-0	0	0	0
2.758333	-99.51480100000001	1558.179565	-18.429815	0.940009	0	-0.324964	0	0	0	0	0	0	-0	3.235521	-0	0	0	0
2.759375	-97.844505	1560.989502	-18.52615	0.937788	0	-0.324695	0	0	0	0	0	0	-0	3.310198	-0	0	0	0
2.760417	-96.07972700000001	1563.569824	-18.652636	0.935557	0	-0.32444	0	0	0	0	0	0	-0	3.384859	-0	0	0	0
2.761458	-94.21299	1565.910278	-18.824509	0.933317	0	-0.324202	0	0	0	0	0	0	-0	3.459597	-0	0	0	0
2.7625	-92.238213	1568.001709	-19.055256	0.931067	0	-0.323984	0	0	0	0	0	0	-0	3.534489	-0	0	0	0
2.763542	-90.15094000000001	1569.835938	-19.356277	0.928809	0	-0.323788	0	0	0	0	0	0	-0	3.609586	-0	0	0	0
2.764583	-87.948547	1571.406738	-19.736614	0.9265409999999999	0	-0.323615	0	0	0	0	0	0	-0	3.684923	-0	0	0	0
2.765625	-85.630394	1572.708984	-20.202732	0.9242629999999999	0	-0.323466	0	0	0	0	0	0	-0	3.760508	-0	0	0	0
2.766667	-83.19795999999999	1573.740112	-20.758389	0.921977	0	-0.323343	0	0	0	0	0	0	-0	3.836325	-0	0	0	0
2.767708	-80.654877	1574.499146	-21.40456	0.9196800000000001	0	-0.323244	0	0	0	0	0	0	-0	3.912335	-0	0	0	0
2.76875	-78.006851	1574.987427	-22.139452	0.9173750000000001	0	-0.323168	0	0	0	0	0	0	-0	3.988473	-0	0	0	0
2.769792	-75.261528	1575.208008	-22.95857	0.91506	0	-0.323116	0	0	0	0	0	0	-0	4.064648	-0	0	0	0
2.770833	-72.42815400000001	1575.166504	-23.854872	0.912737	0	-0.323085	0	0	0	0	0	0	-0	4.140746	-0	0	0	0
2.771875	-69.517258	1574.869873	-24.818968	0.910405	0	-0.323072	0	0	0	0	0	0	-0	4.216627	-0	0	0	0
2.772917	-66.540131	1574.327271	-25.839388	0.908067	0	-0.323075	0	0	0	0	0	0	-0	4.292128	-0	0	0	0
2.773958	-63.508381	1573.549316	-26.902901	0.905722	0	-0.323092	0	0	0	0	0	0	-0	4.367067	-0	0	0	0
2.775	-60.433361	1572.548096	-27.994862	0.903371	0	-0.323119	0	0	0	0	0	0	-0	4.441239	-0	0	0	0
2.776042	-57.32571	1571.336914	-29.09959	0.901015	0	-0.323152	0	0	0	0	0	0	-0	4.514423	-0	0	0	0
2.777083	-54.194897	1569.930054	-30.200781	0.898656	0	-0.323188	0	0	0	0	0	0	-0	4.58638	-0	0	0	0
2.778125	-51.048882	1568.342651	-31.281914	0.896293	0	-0.323224	0	0	0	0	0	0	-0	4.656857	-0	0	0	0
2.779167	-47.893883	1566.589722	-32.326649	0.893929	0	-0.323257	0	0	0	0	0	0	-0	4.725591	-0	0	0	0
2.780208	-44.734253	1564.686401	-33.319241	0.891562	0	-0.323282	0	0	0	0	0	0	-0	4.792309	-0	0	0	0
2.78125	-41.572514	1562.647461	-34.244892	0.889193	0	-0.323296	0	0	0	0	0	0	-0	4.85673	-0	0	0	0
2.782292	-38.409485	1560.486328	-35.090096	0.886823	0	-0.323298	0	0	0	0	0	0	-0	4.918571	-0	0	0	0
2.783333	-35.244541	1558.214844	-35.842941	0.884451	0	-0.323285	0	0	0	0	0	0	-0	4.977544	-0	0	0	0
2.784375	-32.075909	1555.843384	-36.493347	0.882078	0	-0.323255	0	0	0	0	0	0	-0	5.033363	-0	0	0	0
2.785417	-28.901062	1553.379517	-37.033279	0.879703	0	-0.323207	0	0	0	0	0	0	-0	5.085746	-0	0	0	0
2.786458	-25.717094	1550.828003	-37.456856	0.8773260000000001	0	-0.32314	0	0	0	0	0	0	-0	5.134411	-0	0	0	0
2.7875	-22.521093	1548.190918	-37.760456	0.874947	0	-0.323054	0	0	0	0	0	0	-0	5.179088	-0	0	0	0
2.788542	-19.310467	1545.466919	-37.942707	0.872566	0	-0.32295	0	0	0	0	0	0	-0	5.21951	-0	0	0	0
2.789583	-16.083208	1542.651245	-38.004456	0.870182	0	-0.322829	0	0	0	0	0	0	-0	5.255421	-0	0	0	0
2.790625	-12.838078	1539.736206	-37.948662	0.867795	0	-0.322691	0	0	0	0	0	0	-0	5.286578	-0	0	0	0
2.791667	-9.574706000000001	1536.710938	-37.780239	0.865406	0	-0.322541	0	0	0	0	0	0	-0	5.312747	-0	0	0	0
2.792708	-6.293607	1533.562012	-37.505844	0.8630139999999999	0	-0.322379	0	0	0	0	0	0	-0	5.333709	-0	0	0	0
2.79375	-2.996121	1530.273804	-37.133644	0.860621	0	-0.32221	0	0	0	0	0	0	-0	5.349255	-0	0	0	0
2.794792	0.315696	1526.828491	-36.673023	0.858226	0	-0.322036	0	0	0	0	0	0	-0	5.359194	-0	0	0	0
2.795833	3.639223	1523.20752	-36.134293	0.85583	0	-0.32186	0	0	0	0	0	0	-0	5.363347	-0	0	0	0
2.796875	6.971445	1519.391113	-35.528351	0.853433	0	-0.321686	0	0	0	0	0	0	-0	5.361548	-0	0	0	0
2.797917	10.309111	1515.359741	-34.866386	0.851036	0	-0.321518	0	0	0	0	0	0	-0	5.353649	-0	0	0	0
2.798958	13.64888	1511.093994	-34.159519	0.848639	0	-0.321358	0	0	0	0	0	0	-0	5.339513	-0	0	0	0
2.8	16.987436	1506.575317	-33.418526	0.846242	0	-0.321209	0	0	0	0	0	0	-0	5.319019	-0	0	0	0
2.801042	20.321556	1501.786621	-32.653511	0.843845	0	-0.321075	0	0	0	0	0	0	-0	5.292061	-0	0	0	0
2.802083	23.648138	1496.71228	-31.873682	0.841448	0	-0.320958	0	0	0	0	0	0	-0	5.258543	-0	0	0	0
2.803125	26.964205	1491.338745	-31.08709	0.839051	0	-0.320859	0	0	0	0	0	0	-0	5.21839	-0	0	0	0
2.804167	30.26687	1485.654785	-30.300455	0.836654	0	-0.32078	0	0	0	0	0	0	-0	5.171533	-0	0	0	0
2.805208	33.553284	1479.651611	-29.519018	0.834256	0	-0.320723	0	0	0	0	0	0	-0	5.117921	-0	0	0	0
2.80625	36.820602	1473.322754	-28.746445	0.831857	0	-0.320688	0	0	0	0	0	0	-0	5.057518	-0	0	0	0
2.807292	40.065926	1466.664551	-27.98477	0.8294550000000001	0	-0.320675	0	0	0	0	0	0	-0	4.990297	-0	0	0	0
2.808333	43.286297	1459.675903	-27.234402	0.827051	0	-0.320684	0	0	0	0	0	0	-0	4.91625	-0	0	0	0
2.809375	46.47871	1452.358521	-26.494164	0.824645	0	-0.320716	0	0	0	0	0	0	-0	4.835381	-0	0	0	0
2.810417	49.640152	1444.716309	-25.761383	0.822235	0	-0.320768	0	0	0	0	0	0	-0	4.747707	-0	0	0	0
2.811458	52.767673	1436.755493	-25.032026	0.819821	0	-0.320839	0	0	0	0	0	0	-0	4.653263	-0	0	0	0
2.8125	55.858479	1428.484619	-24.300861	0.817403	0	-0.320928	0	0	0	0	0	0	-0	4.552098	-0	0	0	0
2.813542	58.910065	1419.914063	-23.561655	0.814982	0	-0.321034	0	0	0	0	0	0	-0	4.444276	-0	0	0	0
2.814583	61.920319	1411.055542	-22.807398	0.812557	0	-0.321153	0	0	0	0	0	0	-0	4.329881	-0	0	0	0
2.815625	64.887657	1401.922485	-22.030535	0.810128	0	-0.321284	0	0	0	0	0	0	-0	4.209011	-0	0	0	0
2.816667	67.81109600000001	1392.528687	-21.223232	0.807696	0	-0.321425	0	0	0	0	0	0	-0	4.081783	-0	0	0	0
2.817708	70.690369	1382.888916	-20.377613	0.805261	0	-0.321572	0	0	0	0	0	0	-0	3.948334	-0	0	0	0
2.81875	73.525902	1373.017822	-19.486019	0.802822	0	-0.321725	0	0	0	0	0	0	-0	3.808818	-0	0	0	0
2.819792	76.318871	1362.930054	-18.54125	0.800379	0	-0.32188	0	0	0	0	0	0	-0	3.663412	-0	0	0	0
2.820833	79.07111399999999	1352.639893	-17.536785	0.797933	0	-0.322035	0	0	0	0	0	0	-0	3.512309	-0	0	0	0
2.821875	81.785049	1342.160767	-16.466988	0.7954830000000001	0	-0.322189	0	0	0	0	0	0	-0	3.355727	-0	0	0	0
2.822917	84.463554	1331.504883	-15.327281	0.793029	0	-0.322339	0	0	0	0	0	0	-0	3.193903	-0	0	0	0
2.823958	87.10981	1320.683716	-14.114294	0.790569	0	-0.322485	0	0	0	0	0	0	-0	3.027096	-0	0	0	0
2.825	89.727127	1309.707153	-12.82597	0.788104	0	-0.322624	0	0	0	0	0	0	-0	2.855583	-0	0	0	0
2.826042	92.318764	1298.583618	-11.46164	0.785632	0	-0.322756	0	0	0	0	0	0	-0	2.679667	-0	0	0	0
2.827083	94.887733	1287.319946	-10.022062	0.783153	0	-0.32288	0	0	0	0	0	0	-0	2.499668	-0	0	0	0
2.828125	97.436638	1275.921387	-8.509416999999999	0.780666	0	-0.322996	0	0	0	0	0	0	-0	2.315926	-0	0	0	0
2.829167	99.96753699999999	1264.391846	-6.927271	0.7781709999999999	0	-0.323104	0	0	0	0	0	0	-0	2.128803	-0	0	0	0
2.830208	102.481766	1252.733398	-5.280503	0.775668	0	-0.323204	0	0	0	0	0	0	-0	1.938676	-0	0	0	0
